<svg xmlns="http://www.w3.org/2000/svg" xmlns:xlink="http://www.w3.org/1999/xlink" width="24" height="24" viewBox="0 0 24 24">
  <defs>
    <clipPath id="clip-path">
      <rect id="Rectangle_8114" data-name="Rectangle 8114" width="24" height="24" fill="#fff"/>
    </clipPath>
  </defs>
  <g id="Group_47401" data-name="Group 47401" opacity="0.9">
    <g id="Group_47385" data-name="Group 47385" clip-path="url(#clip-path)">
      <path id="Path_34817" data-name="Path 34817" d="M3.9,11.954q0-3.872,0-7.745a2.755,2.755,0,0,1,2.978-3q5.1-.007,10.2,0a2.737,2.737,0,0,1,2.993,2.925q.029,7.867,0,15.736a2.706,2.706,0,0,1-2.98,2.919H6.834a2.714,2.714,0,0,1-2.927-2.907c-.006-2.643,0-5.287,0-7.93M9.226,3.173c-.749,0-1.522,0-2.294,0-.88.006-1.083.207-1.083,1.091q0,7.746,0,15.493c0,.893.2,1.094,1.076,1.1q5.042,0,10.083,0c.952,0,1.107-.156,1.108-1.109q0-4.18,0-8.361c0-2.4,0-4.8,0-7.194,0-.819-.2-1.006-1.022-1.014-.635-.007-1.271.017-1.906-.008-.408-.017-.518.141-.525.535-.016,1.042-.463,1.487-1.5,1.527-.634.025-1.271,0-1.906.009C9.66,5.27,9.259,4.652,9.3,3.438a1.234,1.234,0,0,0-.078-.265" fill="#fff"/>
      <path id="Path_34818" data-name="Path 34818" d="M11.946,18.763c-1.227,0-2.455,0-3.682,0-.806,0-1.013-.251-.922-1.057a3.034,3.034,0,0,1,2.686-2.84A20.721,20.721,0,0,1,14,14.87a3.047,3.047,0,0,1,2.658,2.806c.092.831-.124,1.082-.966,1.086-1.247.005-2.495,0-3.743,0" fill="#fff"/>
      <path id="Path_34819" data-name="Path 34819" d="M12,13.292a2.635,2.635,0,0,1-2.665-2.633,2.669,2.669,0,0,1,5.338,0A2.662,2.662,0,0,1,12,13.292" fill="#fff"/>
    </g>
  </g>
</svg>
