<svg id="Group_47661" data-name="Group 47661" xmlns="http://www.w3.org/2000/svg" xmlns:xlink="http://www.w3.org/1999/xlink" width="24" height="24" viewBox="0 0 24 24">
  <defs>
    <clipPath id="clip-path">
      <rect id="Rectangle_8124" data-name="Rectangle 8124" width="24" height="24" fill="#0b2b25"/>
    </clipPath>
  </defs>
  <g id="Group_47409" data-name="Group 47409" clip-path="url(#clip-path)">
    <path id="Path_34825" data-name="Path 34825" d="M9.213,12.107c.571.513,1.113.961,1.61,1.455q3.161,3.135,6.3,6.292a6.211,6.211,0,0,1,.518.559,1.328,1.328,0,0,1-.071,1.9,1.293,1.293,0,0,1-1.887-.1c-1.054-1.024-2.087-2.069-3.127-3.109q-2.937-2.939-5.87-5.881c-.924-.929-.922-1.51.011-2.445q4.4-4.413,8.814-8.816c.776-.774,1.53-.84,2.139-.208A1.436,1.436,0,0,1,17.4,3.858c-2.449,2.467-4.915,4.919-7.372,7.379-.235.235-.456.484-.819.87" fill="#0b2b25"/>
  </g>
</svg>
