<svg id="Group_48696" data-name="Group 48696" xmlns="http://www.w3.org/2000/svg" xmlns:xlink="http://www.w3.org/1999/xlink" width="24" height="24" viewBox="0 0 24 24">
  <defs>
    <clipPath id="clip-path">
      <rect id="Rectangle_8472" data-name="Rectangle 8472" width="24" height="24" fill="#0d1931"/>
    </clipPath>
  </defs>
  <g id="Group_48694" data-name="Group 48694" clip-path="url(#clip-path)">
    <path id="Path_35444" data-name="Path 35444" d="M3.936,6.53c-.191-.018-.358-.024-.523-.05a1.021,1.021,0,0,1-.987-.985A.981.981,0,0,1,3.449,4.5,13.769,13.769,0,0,1,5.49,4.492a1.355,1.355,0,0,0,1.5-.8A18.086,18.086,0,0,1,8.026,2.142,2.326,2.326,0,0,1,10.04,1.066q1.958-.027,3.915,0a2.386,2.386,0,0,1,2.066,1.094c.418.63.843,1.255,1.241,1.9a.8.8,0,0,0,.782.429,24.9,24.9,0,0,1,2.607.039.922.922,0,0,1,.729,1.487,1.9,1.9,0,0,1-.8.464,1.825,1.825,0,0,1-.546.046c-.1,1.318-.206,2.612-.3,3.907-.247,3.316-.477,6.632-.742,9.946a2.634,2.634,0,0,1-2.82,2.571H7.832A2.657,2.657,0,0,1,5,20.274Q4.516,13.66,4.018,7.048c-.012-.166-.052-.331-.082-.518M6,6.518c0,.236-.01.4,0,.571.131,1.94.26,3.881.4,5.821q.259,3.617.531,7.233c.037.507.27.812.814.812q4.255,0,8.511,0a.735.735,0,0,0,.807-.76c.053-.564.087-1.129.128-1.694q.319-4.41.638-8.818c.075-1.046.135-2.094.2-3.165ZM9.015,4.431h6.028c-.374-1.1-.732-1.364-1.783-1.364H10.707c-.971,0-1.376.319-1.692,1.364" fill="#0d1931"/>
  </g>
</svg>
