<svg xmlns="http://www.w3.org/2000/svg" xmlns:xlink="http://www.w3.org/1999/xlink" width="24" height="24" viewBox="0 0 24 24">
  <defs>
    <clipPath id="clip-path">
      <rect id="Rectangle_8363" data-name="Rectangle 8363" width="24" height="24" fill="#fff"/>
    </clipPath>
  </defs>
  <g id="Group_48166" data-name="Group 48166" opacity="0.9">
    <g id="Group_48160" data-name="Group 48160" clip-path="url(#clip-path)">
      <path id="Path_35362" data-name="Path 35362" d="M9.984,8.292c0,1.477.015,2.954-.009,4.431a1.341,1.341,0,0,0,.436,1.067c1.985,1.958,3.95,3.935,5.92,5.908.59.591.561.883-.125,1.347A10.023,10.023,0,1,1,8.948,2.793c.757-.152,1.033.068,1.035.846,0,1.551,0,3.1,0,4.653m3.825,11.84c.039-.079.078-.16.117-.241a4.6,4.6,0,0,1-.535-.4c-1.518-1.509-3.017-3.037-4.549-4.53a2.485,2.485,0,0,1-.783-1.924c.02-2.417.009-4.834.005-7.252,0-.226-.039-.452-.067-.757a7.893,7.893,0,0,0-5.252,6.3A7.7,7.7,0,0,0,6.395,19.5a7.86,7.86,0,0,0,7.414.632" fill="#fff"/>
      <path id="Path_35363" data-name="Path 35363" d="M12.086,11.279v-.623q0-4.155,0-8.31c0-.876.217-1.077,1.092-1.028a9.378,9.378,0,0,1,8.857,8.635,4.864,4.864,0,0,1,.011.5c-.011.606-.227.825-.843.826q-3.711.006-7.424,0H12.086m7.92-2.054a14.388,14.388,0,0,0-.479-1.45,7.374,7.374,0,0,0-5.016-4.3c-.317-.086-.54-.094-.538.341.009,1.713,0,3.427.019,5.14,0,.129.213.364.329.366,1.823.017,3.647.005,5.47,0,.05,0,.1-.041.215-.092" fill="#fff"/>
      <path id="Path_35364" data-name="Path 35364" d="M12.886,13.392c.277-.015.452-.033.627-.034q4.293,0,8.586,0a5.346,5.346,0,0,1,.607.037.579.579,0,0,1,.574.721,9.44,9.44,0,0,1-3.066,5.854c-.383.349-.7.116-1-.185q-2.971-2.982-5.951-5.957c-.111-.111-.206-.238-.376-.437" fill="#fff"/>
    </g>
  </g>
</svg>
